<svg xmlns="http://www.w3.org/2000/svg" width="302.269" height="61.661" viewBox="0 0 302.269 61.661"><g transform="translate(-22.666 -86)"><path d="M98.027,404.971h0l.051,23.13a19.984,19.984,0,0,1-3.456-.741,13.153,13.153,0,0,1-7.866-7.815c-1.039-3.328-1.047-6.427-1.056-12.616V388.26c0-6.181,0-9.271,1.022-12.625a13.112,13.112,0,0,1,7.747-7.824c3.329-1.064,6.427-1.073,12.617-1.081h18.669c6.181,0,9.271,0,12.617,1.022a13.1,13.1,0,0,1,7.858,7.807c1.056,3.328,1.064,6.427,1.081,12.616v18.669c0,6.181,0,9.271-1.022,12.625a13.118,13.118,0,0,1-7.807,7.841c-3.337,1.064-6.436,1.073-12.625,1.081h-15.5V416.064h11.774c3.712,0,5.568,0,7.56-.655a7.85,7.85,0,0,0,4.691-4.708c.63-2,.621-3.856.613-7.568V391.9c0-3.712,0-5.576-.647-7.577a7.832,7.832,0,0,0-4.708-4.682c-2.026-.647-3.882-.647-7.594-.613H110.865c-3.712,0-5.559,0-7.56.647a7.858,7.858,0,0,0-4.691,4.716c-.63,2-.622,3.857-.613,7.568v11.2Zm16.609-13.621h3.737a8.393,8.393,0,0,1,2.554.2,2.554,2.554,0,0,1,1.566,1.558,8.059,8.059,0,0,1,.213,2.554V399.4a8.444,8.444,0,0,1-.2,2.554,2.648,2.648,0,0,1-1.558,1.566,8.272,8.272,0,0,1-2.554.221h-3.737a8.123,8.123,0,0,1-2.554-.213,2.622,2.622,0,0,1-1.566-1.558,8.06,8.06,0,0,1-.213-2.554v-3.729a8.416,8.416,0,0,1,.2-2.554,2.623,2.623,0,0,1,1.558-1.567,8.967,8.967,0,0,1,2.554-.2Z" transform="translate(-63.034 -280.73)" fill="#593ecc"/><g transform="translate(-3 1)"><path d="M189.814,387.49h-1.778c-.243,0-.313.179-.313.48v6.364h2.11a7.136,7.136,0,0,0,1.874-.2,2.806,2.806,0,0,0,1.1-.493,2.961,2.961,0,0,0,.723-2.366v-1.03a2.814,2.814,0,0,0-.7-2.123,3.444,3.444,0,0,0-2.488-.723Zm-2.04,19.743a1.145,1.145,0,0,1-.365.985,1.6,1.6,0,0,1-1.049.262h-3.933a1.636,1.636,0,0,1-1.068-.243,1.151,1.151,0,0,1-.345-.991V384.132a2.046,2.046,0,0,1,.358-1.382,2.4,2.4,0,0,1,1.369-.473c.857,0,1.861-.134,2.993-.166s2.4,0,3.8,0h.48a21.594,21.594,0,0,1,5.116.524,7.118,7.118,0,0,1,3.377,1.829,5.5,5.5,0,0,1,1.362,2.315,12.057,12.057,0,0,1,.46,3.5v1.369c0,3.012-.838,5.148-2.513,6.363a8.819,8.819,0,0,1-3.409,1.5,21.647,21.647,0,0,1-4.72.46h-1.919ZM218.1,394.666a31.135,31.135,0,0,0-.2-3.786,3.9,3.9,0,0,0-.94-2.258,3.335,3.335,0,0,0-1.119-.722,4.433,4.433,0,0,0-1.58-.211h-.576a4.273,4.273,0,0,0-1.548.25,3.28,3.28,0,0,0-1.1.742,3.742,3.742,0,0,0-.921,2.232,29.992,29.992,0,0,0-.2,3.786v1.5a29.629,29.629,0,0,0,.2,3.767,3.934,3.934,0,0,0,.934,2.258,3.347,3.347,0,0,0,1.106.723,4.248,4.248,0,0,0,1.548.23h.557a4.273,4.273,0,0,0,1.548-.249,2.9,2.9,0,0,0,1.1-.7,3.839,3.839,0,0,0,.94-2.258,27.654,27.654,0,0,0,.179-3.78Zm6.894,2.27a21.245,21.245,0,0,1-.742,5.986,7.673,7.673,0,0,1-2.616,3.946,7.961,7.961,0,0,1-2.993,1.433,18.658,18.658,0,0,1-4.413.492h-.313a16.927,16.927,0,0,1-4.426-.474,7.933,7.933,0,0,1-2.993-1.419,7.754,7.754,0,0,1-2.648-3.946,21.163,21.163,0,0,1-.742-5.973v-3.089a21.291,21.291,0,0,1,.742-5.992,7.79,7.79,0,0,1,2.635-3.965,8.188,8.188,0,0,1,2.961-1.394,17.47,17.47,0,0,1,4.426-.492h.313a16.352,16.352,0,0,1,4.419.473,7.469,7.469,0,0,1,5.628,5.347,21.173,21.173,0,0,1,.761,5.973Zm14.377,11.793q-5.839,0-8.359-2.68a7.032,7.032,0,0,1-1.791-3.294,20.031,20.031,0,0,1-.531-4.937v-4.931a18.857,18.857,0,0,1,.531-4.937,7.47,7.47,0,0,1,1.772-3.287,7.675,7.675,0,0,1,3.294-2.091,16.329,16.329,0,0,1,5.033-.639h.263a19.487,19.487,0,0,1,4.131.441,15.34,15.34,0,0,1,3.786,1.279,1.016,1.016,0,0,1,.537.557,1.322,1.322,0,0,1,0,.889l-1.311,3.287c-.166.416-.4.64-.691.64a1.746,1.746,0,0,1-.761-.2,14.542,14.542,0,0,0-2.6-1,10.53,10.53,0,0,0-2.718-.345h-.16a3.71,3.71,0,0,0-3.454,1.445,5.451,5.451,0,0,0-.639,1.919,23.969,23.969,0,0,0-.147,2.878v2.859a18.532,18.532,0,0,0,.217,3.1,4.392,4.392,0,0,0,.9,2.06,3.836,3.836,0,0,0,1.5.9,6.314,6.314,0,0,0,2.29.326h.16a11.712,11.712,0,0,0,2.558-.345,13.889,13.889,0,0,0,2.418-.857l.294-.1a1.174,1.174,0,0,1,.365,0,.577.577,0,0,1,.409.166,1.578,1.578,0,0,1,.313.639l.691,2.91a3.956,3.956,0,0,1,.115.774.869.869,0,0,1-.23.588,3.127,3.127,0,0,1-.972.531,17.176,17.176,0,0,1-3.287.921,17.485,17.485,0,0,1-3.607.377Zm19.379-1.643c0,.575,0,.934-.25,1.049a2.483,2.483,0,0,1-1.151.2H253.4a2.373,2.373,0,0,1-1.17-.179,1.688,1.688,0,0,1-.23-1.068v-23.51c0-.563.083-.921.249-1.055a2.1,2.1,0,0,1,1.151-.2h3.946a2.168,2.168,0,0,1,1.17.2c.166.134.249.48.262,1.055v8.749h.2a.6.6,0,0,0,.409-.128,3.251,3.251,0,0,0,.313-.48l5.334-8.455a2,2,0,0,1,.787-.793,2.592,2.592,0,0,1,1.2-.211h4.592c1.362,0,1.644.512,1,1.529l-7.291,10.149c-.166.217-.294.384-.377.512a.467.467,0,0,0-.147.377.64.64,0,0,0,.147.4,3.407,3.407,0,0,1,.377.524l7.553,11.269c.505.844.147,1.279-1.087,1.279h-4.279a4.365,4.365,0,0,1-1.465-.179,1.669,1.669,0,0,1-.742-.729l-5.442-9.011a1.922,1.922,0,0,0-.409-.544.691.691,0,0,0-.4-.134h-.249Zm23.024-9.478v2.4a15.373,15.373,0,0,0,.186,2.085.64.64,0,0,0,.294.576.85.85,0,0,0,.595.147h8.57a1.836,1.836,0,0,1,1.132.218,1.631,1.631,0,0,1,.23,1.017v2.98a1.6,1.6,0,0,1-.211.985c-.147.186-.524.249-1.151.249H281.7a16.629,16.629,0,0,1-2.558-.166,5.118,5.118,0,0,1-1.829-.672,3.373,3.373,0,0,1-1.151-1.279,6.259,6.259,0,0,1-.524-2.091q-.2-1.842-.249-3.8v-9.446a33.838,33.838,0,0,1,.2-3.441,8.584,8.584,0,0,1,.512-2.558,3.615,3.615,0,0,1,1.119-1.535,4.052,4.052,0,0,1,1.861-.787,12.992,12.992,0,0,1,2.731-.23H291.4c.639,0,1.036,0,1.151.23a1.863,1.863,0,0,1,.179,1.017v3.031a1.694,1.694,0,0,1-.166.953c-.115.166-.505.249-1.151.249h-8.532a1.207,1.207,0,0,0-.774.16.908.908,0,0,0-.23.64l-.115,3.984h8.487a1.523,1.523,0,0,1,1.023.23,1.234,1.234,0,0,1,.262.934v2.795a1.234,1.234,0,0,1-.262.889,1.776,1.776,0,0,1-1.023.217Zm14.582-9.868a1.656,1.656,0,0,1-1.055-.249,1.414,1.414,0,0,1-.249-.972v-3.089a1.451,1.451,0,0,1,.249-1.036,1.637,1.637,0,0,1,1.036-.217h17.325a1.629,1.629,0,0,1,1.049.23c.166.134.249.492.249,1.023v2.98a1.35,1.35,0,0,1-.249.972,1.644,1.644,0,0,1-1.049.249h-5.27v19.263a1.408,1.408,0,0,1-.275,1.017,1.92,1.92,0,0,1-1.222.249h-3.748a1.849,1.849,0,0,1-1.2-.249,1.356,1.356,0,0,1-.294-1.017V387.688Zm30.615-.48h-1.8c-.2,0-.314.179-.314.48v6.344h2.091a8.343,8.343,0,0,0,1.874-.185,2.479,2.479,0,0,0,1.106-.511,2.948,2.948,0,0,0,.7-2.367V390a2.865,2.865,0,0,0-.671-2.143,3.511,3.511,0,0,0-2.5-.7ZM324.9,407a1.221,1.221,0,0,1-.345,1,1.759,1.759,0,0,1-1.055.243h-3.933a1.7,1.7,0,0,1-1.068-.262,1.139,1.139,0,0,1-.345-.985V383.889a1.918,1.918,0,0,1,.358-1.369,2.167,2.167,0,0,1,1.4-.441c.857-.083,1.861-.147,3.012-.166s2.385,0,3.786,0h.473a20.688,20.688,0,0,1,5.117.544,6.924,6.924,0,0,1,3.287,1.822,5.756,5.756,0,0,1,1.369,2.3,12.434,12.434,0,0,1,.441,3.428v1.362c0,3.019-.838,5.116-2.513,6.4a9.018,9.018,0,0,1-3.409,1.477,21.651,21.651,0,0,1-4.72.46H324.9Zm22.9,0c0,.556,0,.921-.243,1.049a2,2,0,0,1-1.151.2H342.45a2.091,2.091,0,0,1-1.164-.2c-.166-.128-.249-.492-.249-1.049v-23.51c0-.576,0-.921.249-1.055a2.042,2.042,0,0,1,1.151-.211h3.946a2.168,2.168,0,0,1,1.17.2,1.522,1.522,0,0,1,.243,1.049Zm11.883-5.168a1,1,0,0,0,.211.678.908.908,0,0,0,.774.243h6.363c.64,0,1.055,0,1.2.231a1.694,1.694,0,0,1,.217,1.055v2.9a1.677,1.677,0,0,1-.23,1.017c-.154.179-.544.262-1.19.262h-9.721a4.843,4.843,0,0,1-3.473-.972,4.714,4.714,0,0,1-.966-3.287V383.524a1.447,1.447,0,0,1,.23-1.055,2.2,2.2,0,0,1,1.164-.192h3.984a2.091,2.091,0,0,1,1.132.192,1.663,1.663,0,0,1,.23,1.055Zm19.116,0a1.023,1.023,0,0,0,.2.691.959.959,0,0,0,.768.25H386.2a1.86,1.86,0,0,1,1.183.231,1.623,1.623,0,0,1,.217,1.049v2.9a1.637,1.637,0,0,1-.23,1.024c-.147.192-.524.262-1.183.262h-9.76a4.791,4.791,0,0,1-3.454-.972,4.7,4.7,0,0,1-.972-3.294V383.557c0-.576,0-.921.23-1.049a1.959,1.959,0,0,1,1.17-.218h3.984a1.922,1.922,0,0,1,1.132.218c.147.128.23.473.23,1.049Zm20.12,6.728a14.938,14.938,0,0,1-1.861-.083c-.691-.083-1.33-.128-1.989-.243s-1.317-.217-1.919-.345a12.274,12.274,0,0,1-1.643-.448,1.792,1.792,0,0,1-1.017-.64,1.618,1.618,0,0,1-.115-.953l.505-3.287c.1-.838.575-1.12,1.42-.806a24.375,24.375,0,0,0,3.434.9,14.9,14.9,0,0,0,3.012.313h.179a4.752,4.752,0,0,0,2.648-.544,1.963,1.963,0,0,0,.729-1.759v-.4a1.785,1.785,0,0,0-.71-1.644,7.27,7.27,0,0,0-2.469-.774l-2.731-.524a9.7,9.7,0,0,1-2.942-.908,5.58,5.58,0,0,1-1.88-1.477,5.292,5.292,0,0,1-1-2.059,9.879,9.879,0,0,1-.307-2.6v-1.138A6.752,6.752,0,0,1,392.047,384a6.958,6.958,0,0,1,3.057-1.644,18.623,18.623,0,0,1,4.937-.544h.281a22.838,22.838,0,0,1,3.735.294,16.749,16.749,0,0,1,3.108.722,1.4,1.4,0,0,1,.825.64,2.323,2.323,0,0,1,0,1.183l-.691,2.949c-.154.723-.64.953-1.484.671a18.71,18.71,0,0,0-2.648-.639,16.686,16.686,0,0,0-2.648-.2h-.166a5.687,5.687,0,0,0-2.763.473,1.644,1.644,0,0,0-.742,1.548v.364a1.631,1.631,0,0,0,.563,1.362,5.5,5.5,0,0,0,2.072.71l3.044.608a16.451,16.451,0,0,1,2.961.838,5,5,0,0,1,1.97,1.279,4.554,4.554,0,0,1,1.087,2.021,10.875,10.875,0,0,1,.365,3.076v.953a7.412,7.412,0,0,1-2.207,5.922c-1.465,1.279-3.914,1.919-7.323,1.964Z" transform="translate(-81.003 -291.811)" fill="#593ecc"/><path d="M6.112-11.2a6.2,6.2,0,0,1,2.536.48A3.688,3.688,0,0,1,10.3-9.344a3.85,3.85,0,0,1,.576,2.128A3.86,3.86,0,0,1,10.3-5.1,3.67,3.67,0,0,1,8.648-3.712a6.2,6.2,0,0,1-2.536.48H3.584V0H1.5V-11.2Zm-.1,6.208A3.2,3.2,0,0,0,8.08-5.568a2.008,2.008,0,0,0,.7-1.648,2.008,2.008,0,0,0-.7-1.648A3.2,3.2,0,0,0,6.016-9.44H3.584v4.448ZM17.776-8.64a3.57,3.57,0,0,1,2.592.944,3.724,3.724,0,0,1,.976,2.8V0h-2V-4.64a2.4,2.4,0,0,0-.528-1.688,1.952,1.952,0,0,0-1.5-.568,2.309,2.309,0,0,0-1.744.664,2.647,2.647,0,0,0-.64,1.912V0h-2V-11.872h2v4.32a3.253,3.253,0,0,1,1.224-.808A4.492,4.492,0,0,1,17.776-8.64Zm9.376,0a4.166,4.166,0,0,1,2.888.9,3.494,3.494,0,0,1,1,2.728V0H29.152V-1.04A2.327,2.327,0,0,1,28.1-.184a4.1,4.1,0,0,1-1.64.3,4.018,4.018,0,0,1-1.68-.328,2.6,2.6,0,0,1-1.112-.912,2.314,2.314,0,0,1-.392-1.32A2.262,2.262,0,0,1,24.136-4.3a4.251,4.251,0,0,1,2.7-.7H29.04V-5.12A1.751,1.751,0,0,0,28.5-6.5a2.319,2.319,0,0,0-1.592-.48,4.6,4.6,0,0,0-1.416.224,3.478,3.478,0,0,0-1.176.624l-.784-1.456a4.855,4.855,0,0,1,1.616-.784A7.19,7.19,0,0,1,27.152-8.64Zm-.272,7.3a2.582,2.582,0,0,0,1.336-.344,1.872,1.872,0,0,0,.824-.984v-.992H26.976q-1.728,0-1.728,1.136a1.02,1.02,0,0,0,.432.864A1.98,1.98,0,0,0,26.88-1.344ZM35.5-7.3a3.332,3.332,0,0,1,3.04-1.344v1.9a2.539,2.539,0,0,0-.464-.048,2.416,2.416,0,0,0-1.824.68,2.712,2.712,0,0,0-.656,1.96V0h-2V-8.544h1.9ZM51.024-8.64a3.476,3.476,0,0,1,2.56.936A3.794,3.794,0,0,1,54.528-4.9V0h-2V-4.64a2.5,2.5,0,0,0-.5-1.688A1.789,1.789,0,0,0,50.608-6.9a2.086,2.086,0,0,0-1.616.664,2.709,2.709,0,0,0-.608,1.9V0h-2V-4.64a2.5,2.5,0,0,0-.5-1.688A1.789,1.789,0,0,0,44.464-6.9a2.092,2.092,0,0,0-1.624.656,2.727,2.727,0,0,0-.6,1.9V0h-2V-8.544h1.9v1.088a3.11,3.11,0,0,1,1.2-.88,4.074,4.074,0,0,1,1.6-.3,3.865,3.865,0,0,1,1.7.36,2.766,2.766,0,0,1,1.176,1.064,3.561,3.561,0,0,1,1.36-1.048A4.417,4.417,0,0,1,51.024-8.64Zm9.328,0a4.166,4.166,0,0,1,2.888.9,3.494,3.494,0,0,1,1,2.728V0H62.352V-1.04A2.327,2.327,0,0,1,61.3-.184a4.1,4.1,0,0,1-1.64.3,4.018,4.018,0,0,1-1.68-.328,2.6,2.6,0,0,1-1.112-.912,2.314,2.314,0,0,1-.392-1.32A2.262,2.262,0,0,1,57.336-4.3a4.251,4.251,0,0,1,2.7-.7H62.24V-5.12A1.751,1.751,0,0,0,61.7-6.5a2.319,2.319,0,0,0-1.592-.48,4.6,4.6,0,0,0-1.416.224,3.478,3.478,0,0,0-1.176.624l-.784-1.456a4.855,4.855,0,0,1,1.616-.784A7.19,7.19,0,0,1,60.352-8.64Zm-.272,7.3a2.582,2.582,0,0,0,1.336-.344,1.872,1.872,0,0,0,.824-.984v-.992H60.176q-1.728,0-1.728,1.136a1.02,1.02,0,0,0,.432.864A1.98,1.98,0,0,0,60.08-1.344ZM70.8.112a5.009,5.009,0,0,1-2.384-.56,4.112,4.112,0,0,1-1.648-1.56,4.359,4.359,0,0,1-.592-2.264,4.317,4.317,0,0,1,.592-2.256,4.143,4.143,0,0,1,1.64-1.552A5,5,0,0,1,70.8-8.64a4.608,4.608,0,0,1,2.216.512,3.322,3.322,0,0,1,1.432,1.472l-1.536.9a2.44,2.44,0,0,0-.92-.888,2.516,2.516,0,0,0-1.208-.3,2.531,2.531,0,0,0-1.856.728,2.611,2.611,0,0,0-.736,1.944,2.627,2.627,0,0,0,.728,1.944,2.524,2.524,0,0,0,1.864.728,2.516,2.516,0,0,0,1.208-.3,2.44,2.44,0,0,0,.92-.888l1.536.9A3.462,3.462,0,0,1,73-.408,4.516,4.516,0,0,1,70.8.112ZM84.064-8.544l-4,9.232a4.3,4.3,0,0,1-1.36,1.96,3.257,3.257,0,0,1-1.936.568A3.973,3.973,0,0,1,75.5,3.008a2.793,2.793,0,0,1-1.024-.576L75.28.96a2.177,2.177,0,0,0,.68.432,2.08,2.08,0,0,0,.792.16,1.363,1.363,0,0,0,.872-.272,2.4,2.4,0,0,0,.632-.912L78.4.032,74.672-8.544h2.08l2.688,6.32,2.7-6.32Zm4.784,11.76a3.148,3.148,0,0,1-1.92-.5L87.5,1.232a1.9,1.9,0,0,0,1.168.336,1.067,1.067,0,0,0,.856-.344,1.52,1.52,0,0,0,.3-1.016V-8.544h2V.16A3.1,3.1,0,0,1,91.04,2.4,2.9,2.9,0,0,1,88.848,3.216ZM90.816-9.952A1.285,1.285,0,0,1,89.9-10.3a1.124,1.124,0,0,1-.368-.856,1.124,1.124,0,0,1,.368-.856,1.285,1.285,0,0,1,.912-.344,1.321,1.321,0,0,1,.912.328,1.057,1.057,0,0,1,.368.824,1.207,1.207,0,0,1-.36.888A1.246,1.246,0,0,1,90.816-9.952Zm11.9,1.408V0h-1.9V-1.088a3.183,3.183,0,0,1-1.2.888,3.861,3.861,0,0,1-1.552.312,3.714,3.714,0,0,1-2.7-.952,3.756,3.756,0,0,1-.984-2.824v-4.88h2v4.608a2.475,2.475,0,0,0,.52,1.72,1.905,1.905,0,0,0,1.48.568,2.241,2.241,0,0,0,1.7-.664,2.668,2.668,0,0,0,.632-1.912v-4.32ZM107.984.112a7.65,7.65,0,0,1-2.032-.272,5.113,5.113,0,0,1-1.584-.688l.768-1.52a4.938,4.938,0,0,0,1.384.616,5.75,5.75,0,0,0,1.592.232q1.792,0,1.792-.944a.631.631,0,0,0-.456-.624,7.873,7.873,0,0,0-1.464-.336,11.877,11.877,0,0,1-1.72-.368,2.64,2.64,0,0,1-1.152-.728,2.033,2.033,0,0,1-.488-1.448,2.276,2.276,0,0,1,1.016-1.944,4.624,4.624,0,0,1,2.744-.728,7.919,7.919,0,0,1,1.76.2,4.934,4.934,0,0,1,1.44.536l-.768,1.52a4.737,4.737,0,0,0-2.448-.64,2.713,2.713,0,0,0-1.336.264.788.788,0,0,0-.456.7.7.7,0,0,0,.488.68,7.755,7.755,0,0,0,1.512.376,11.666,11.666,0,0,1,1.68.368,2.629,2.629,0,0,1,1.128.7,1.962,1.962,0,0,1,.472,1.408,2.228,2.228,0,0,1-1.04,1.92A4.9,4.9,0,0,1,107.984.112ZM118.72-.464a2.354,2.354,0,0,1-.856.432A3.855,3.855,0,0,1,116.8.112a3.019,3.019,0,0,1-2.176-.736,2.833,2.833,0,0,1-.768-2.144V-6.88h-1.408v-1.6h1.408v-1.952h2V-8.48h2.288v1.6h-2.288v4.064a1.352,1.352,0,0,0,.3.952,1.141,1.141,0,0,0,.88.328,1.757,1.757,0,0,0,1.12-.352Zm14.544-8.08V-1.3q0,4.512-4.608,4.512A8.552,8.552,0,0,1,126.32,2.9,4.956,4.956,0,0,1,124.5,2l.9-1.5a4.281,4.281,0,0,0,1.416.744,5.552,5.552,0,0,0,1.736.28,2.865,2.865,0,0,0,2.064-.64,2.616,2.616,0,0,0,.656-1.952V-1.52a3.288,3.288,0,0,1-1.248.848,4.4,4.4,0,0,1-1.616.288,4.635,4.635,0,0,1-2.2-.52,3.907,3.907,0,0,1-1.552-1.464,4.107,4.107,0,0,1-.568-2.16,4.065,4.065,0,0,1,.568-2.152A3.868,3.868,0,0,1,126.2-8.128a4.694,4.694,0,0,1,2.2-.512,4.508,4.508,0,0,1,1.688.3,3.114,3.114,0,0,1,1.272.928V-8.544ZM128.7-2.08a2.622,2.622,0,0,0,1.864-.68,2.308,2.308,0,0,0,.728-1.768,2.264,2.264,0,0,0-.728-1.744,2.64,2.64,0,0,0-1.864-.672,2.662,2.662,0,0,0-1.88.672,2.264,2.264,0,0,0-.728,1.744,2.308,2.308,0,0,0,.728,1.768A2.644,2.644,0,0,0,128.7-2.08ZM139.728.112a4.848,4.848,0,0,1-2.336-.56,4.083,4.083,0,0,1-1.624-1.56,4.406,4.406,0,0,1-.584-2.264,4.363,4.363,0,0,1,.584-2.256,4.1,4.1,0,0,1,1.624-1.552,4.848,4.848,0,0,1,2.336-.56,4.881,4.881,0,0,1,2.352.56A4.1,4.1,0,0,1,143.7-6.528a4.363,4.363,0,0,1,.584,2.256,4.406,4.406,0,0,1-.584,2.264,4.083,4.083,0,0,1-1.624,1.56A4.881,4.881,0,0,1,139.728.112Zm0-1.712a2.444,2.444,0,0,0,1.824-.736,2.65,2.65,0,0,0,.72-1.936,2.65,2.65,0,0,0-.72-1.936,2.444,2.444,0,0,0-1.824-.736,2.417,2.417,0,0,0-1.816.736,2.667,2.667,0,0,0-.712,1.936,2.667,2.667,0,0,0,.712,1.936A2.417,2.417,0,0,0,139.728-1.6ZM151.344-.464a2.354,2.354,0,0,1-.856.432,3.855,3.855,0,0,1-1.064.144,3.019,3.019,0,0,1-2.176-.736,2.833,2.833,0,0,1-.768-2.144V-6.88h-1.408v-1.6h1.408v-1.952h2V-8.48h2.288v1.6H148.48v4.064a1.352,1.352,0,0,0,.3.952,1.141,1.141,0,0,0,.88.328,1.757,1.757,0,0,0,1.12-.352Zm14.1-3.76q0,.208-.032.592h-6.7a2.324,2.324,0,0,0,.92,1.5,3.016,3.016,0,0,0,1.848.552,3.114,3.114,0,0,0,2.32-.928l1.072,1.232a3.612,3.612,0,0,1-1.456,1.04,5.3,5.3,0,0,1-1.984.352,5.28,5.28,0,0,1-2.48-.56,4.033,4.033,0,0,1-1.656-1.56,4.406,4.406,0,0,1-.584-2.264,4.471,4.471,0,0,1,.568-2.248,4.029,4.029,0,0,1,1.576-1.56,4.6,4.6,0,0,1,2.272-.56,4.483,4.483,0,0,1,2.232.552,3.909,3.909,0,0,1,1.536,1.552A4.706,4.706,0,0,1,165.44-4.224ZM161.12-7.04a2.413,2.413,0,0,0-1.624.568,2.389,2.389,0,0,0-.808,1.512h4.848a2.358,2.358,0,0,0-.784-1.5A2.384,2.384,0,0,0,161.12-7.04Zm9.264-1.6a4.166,4.166,0,0,1,2.888.9,3.494,3.494,0,0,1,1,2.728V0h-1.888V-1.04a2.327,2.327,0,0,1-1.048.856,4.1,4.1,0,0,1-1.64.3,4.018,4.018,0,0,1-1.68-.328,2.6,2.6,0,0,1-1.112-.912,2.314,2.314,0,0,1-.392-1.32,2.262,2.262,0,0,1,.856-1.848,4.251,4.251,0,0,1,2.7-.7h2.208V-5.12a1.751,1.751,0,0,0-.536-1.376,2.319,2.319,0,0,0-1.592-.48,4.6,4.6,0,0,0-1.416.224,3.478,3.478,0,0,0-1.176.624l-.784-1.456a4.855,4.855,0,0,1,1.616-.784A7.19,7.19,0,0,1,170.384-8.64Zm-.272,7.3a2.582,2.582,0,0,0,1.336-.344,1.872,1.872,0,0,0,.824-.984v-.992h-2.064q-1.728,0-1.728,1.136a1.02,1.02,0,0,0,.432.864A1.98,1.98,0,0,0,170.112-1.344Zm9.36,1.456A7.65,7.65,0,0,1,177.44-.16a5.113,5.113,0,0,1-1.584-.688l.768-1.52a4.937,4.937,0,0,0,1.384.616,5.75,5.75,0,0,0,1.592.232q1.792,0,1.792-.944a.631.631,0,0,0-.456-.624,7.873,7.873,0,0,0-1.464-.336,11.878,11.878,0,0,1-1.72-.368A2.64,2.64,0,0,1,176.6-4.52a2.033,2.033,0,0,1-.488-1.448,2.276,2.276,0,0,1,1.016-1.944,4.624,4.624,0,0,1,2.744-.728,7.919,7.919,0,0,1,1.76.2,4.934,4.934,0,0,1,1.44.536l-.768,1.52a4.737,4.737,0,0,0-2.448-.64,2.713,2.713,0,0,0-1.336.264.788.788,0,0,0-.456.7.7.7,0,0,0,.488.68,7.755,7.755,0,0,0,1.512.376,11.667,11.667,0,0,1,1.68.368,2.629,2.629,0,0,1,1.128.7,1.962,1.962,0,0,1,.472,1.408,2.228,2.228,0,0,1-1.04,1.92A4.9,4.9,0,0,1,179.472.112Zm5.6-8.656h2V0h-2Zm1.008-1.408a1.285,1.285,0,0,1-.912-.344,1.124,1.124,0,0,1-.368-.856,1.124,1.124,0,0,1,.368-.856,1.285,1.285,0,0,1,.912-.344,1.321,1.321,0,0,1,.912.328,1.057,1.057,0,0,1,.368.824,1.207,1.207,0,0,1-.36.888A1.246,1.246,0,0,1,186.08-9.952Zm11.648,5.728q0,.208-.032.592h-6.7a2.324,2.324,0,0,0,.92,1.5,3.016,3.016,0,0,0,1.848.552,3.114,3.114,0,0,0,2.32-.928l1.072,1.232A3.612,3.612,0,0,1,195.7-.24a5.3,5.3,0,0,1-1.984.352,5.28,5.28,0,0,1-2.48-.56,4.033,4.033,0,0,1-1.656-1.56,4.406,4.406,0,0,1-.584-2.264,4.471,4.471,0,0,1,.568-2.248,4.029,4.029,0,0,1,1.576-1.56,4.6,4.6,0,0,1,2.272-.56,4.483,4.483,0,0,1,2.232.552,3.909,3.909,0,0,1,1.536,1.552A4.706,4.706,0,0,1,197.728-4.224Zm-4.32-2.816a2.413,2.413,0,0,0-1.624.568,2.389,2.389,0,0,0-.808,1.512h4.848a2.358,2.358,0,0,0-.784-1.5A2.384,2.384,0,0,0,193.408-7.04Zm8.144-.256a3.332,3.332,0,0,1,3.04-1.344v1.9a2.539,2.539,0,0,0-.464-.048,2.416,2.416,0,0,0-1.824.68,2.712,2.712,0,0,0-.656,1.96V0h-2V-8.544h1.9Z" transform="translate(98.5 138)" fill="#2a387c"/></g></g></svg>